#!OML:ASF H:\Terrain\Patient Classification 1\Walking\steve\steve.ASF
:FULLY-SPECIFIED
:DEGREES
348
root 7.56265 16.3257 8.78 7.64401 -6.46003 -6.32715
lowerback -1.51964 5.19772 6.71691
upperback -1.60909 6.87125 1.89875
thorax -0.264073 3.38916 -1.65309
lowerneck -9.73366 -1.20372 -2.01307
upperneck 19.0045 -1.40303 0.604479
head 7.45817 -0.750104 0.404433
rclavicle 8.87077e-015 2.66371e-014
rhumerus -5.32842 2.21267 -81.8752
rradius 37.1925
rwrist -7.33158
rhand -20.5643 -34.8027
rfingers 7.12502
rthumb 5.79498 -64.7035
lclavicle 8.87077e-015 2.66371e-014
lhumerus -57.1526 8.04589 78.274
lradius 20.8394
lwrist 6.01568
lhand -18.3758 -10.7022
lfingers 7.12502
lthumb 7.90768 19.1299
rfemur 2.65997 -1.56945 28.3759
rtibia 17.8554
rfoot -12.5856 22.0872
rtoes 8.3754
lfemur -38.2282 -2.17772 -8.33381
ltibia 16.2034
lfoot -18.7324 9.76569
ltoes -16.8784
349
root 7.58216 16.3035 8.93629 7.63344 -6.95255 -6.68279
lowerback -1.36084 5.41211 6.9859
upperback -1.53708 7.16397 1.90462
thorax -0.224767 3.53538 -1.79224
lowerneck -9.72668 -1.24467 -2.25786
upperneck 18.7651 -1.49354 0.999882
head 7.38473 -0.774343 0.56598
rclavicle -2.96313e-014 -9.54166e-015
rhumerus -5.1063 2.16823 -81.7708
rradius 37.4206
rwrist -7.89714
rhand -19.5532 -39.9178
rfingers 7.12502
rthumb 6.77112 -69.7895
lclavicle -2.96313e-014 -9.54166e-015
lhumerus -57.4408 8.17974 77.7757
lradius 20.8838
lwrist 5.84051
lhand -18.2186 -11.2593
lfingers 7.12502
lthumb 8.0594 18.567
rfemur 3.53334 -1.15677 28.4986
rtibia 17.2666
rfoot -11.6542 22.4348
rtoes 7.12074
lfemur -38.2025 -1.99669 -7.83554
ltibia 16.0661
lfoot -18.5791 10.2208
ltoes -17.1558
350
root 7.59745 16.2684 9.09231 7.781 -7.26455 -7.27921
lowerback -1.27234 5.58678 7.47789
upperback -1.55891 7.40144 1.95635
thorax -0.224671 3.64923 -2.0043
lowerneck -9.98936 -1.33503 -2.43129
upperneck 18.7992 -1.63352 1.26561
head 7.44895 -0.82857 0.66705
rclavicle -6.8444e-014 1.43125e-014
rhumerus -4.85977 2.18262 -81.665
rradius 37.4741
rwrist -8.35123
rhand -20.2122 -43.4507
rfingers 7.12502
rthumb 6.13499 -73.3419
lclavicle -6.8444e-014 1.43125e-014
lhumerus -57.7653 8.30852 77.1956
lradius 20.896
lwrist 5.65805
lhand -17.8838 -11.1366
lfingers 7.12502
lthumb 8.38245 18.6771
rfemur 4.25708 -0.662233 28.9981
rtibia 16.6481
rfoot -10.8107 22.2254
rtoes 6.58795
lfemur -38.3981 -1.2279 -7.42359
ltibia 16.1282
lfoot -17.9577 9.96116
ltoes -18.4192
351
root 7.60933 16.2416 9.25178 7.96841 -7.33501 -7.72958
lowerback -1.34827 5.69721 7.65012
upperback -1.57904 7.54083 2.06724
thorax -0.184674 3.71842 -1.97097
lowerneck -10.3415 -1.46067 -2.54309
upperneck 18.8618 -1.79865 1.36871
head 7.53795 -0.904592 0.70161
rclavicle 7.18607e-014 1.55052e-014
rhumerus -4.58883 1.77808 -81.5024
rradius 37.5091
rwrist -8.00762
rhand -20.0231 -44.5578
rfingers 7.12502
rthumb 6.31755 -74.4436
lclavicle 7.18607e-014 1.55052e-014
lhumerus -58.0326 8.17541 77.0978
lradius 20.8979
lwrist 6.1781
lhand -18.1162 -11.0062
lfingers 7.12502
lthumb 8.15815 18.8163
rfemur 4.88328 -0.360433 29.3545
rtibia 16.2816
rfoot -10.2596 22.0907
rtoes 8.24346
lfemur -38.5831 -0.577757 -7.21373
ltibia 16.1846
lfoot -17.2986 9.6196
ltoes -20.6561
352
root 7.62115 16.2327 9.41319 8.0862 -7.47873 -7.67302
lowerback -1.44059 5.7768 7.24375
upperback -1.63792 7.64592 2.04491
thorax -0.232755 3.77192 -1.7667
lowerneck -10.251 -1.49787 -2.46676
upperneck 18.7021 -1.86187 1.35388
head 7.46975 -0.931006 0.678599
rclavicle 6.50523e-014 -1.31198e-014
rhumerus -4.6976 1.53164 -81.4407
rradius 37.842
rwrist -8.14992
rhand -20.3424 -44.8905
rfingers 7.12502
rthumb 6.00921 -74.7853
lclavicle 6.50523e-014 -1.31198e-014
lhumerus -58.3162 8.10438 76.8821
lradius 20.7856
lwrist 6.57223
lhand -18.6415 -11.0653
lfingers 7.12502
lthumb 7.65118 18.7762
rfemur 5.55713 -0.0556311 29.1236
rtibia 16.0015
rfoot -10.2661 21.9607
rtoes 7.63713
lfemur -38.5971 -0.919327 -7.03925
ltibia 16.3132
lfoot -17.2994 9.77167
ltoes -19.6541
353
root 7.64246 16.2252 9.58697 8.19344 -7.608 -7.49262
lowerback -1.57345 5.85291 6.96352
upperback -1.77637 7.74543 1.8581
thorax -0.303632 3.819 -1.79707
lowerneck -9.98041 -1.49134 -2.13182
upperneck 18.585 -1.89692 1.24551
head 7.37907 -0.935289 0.586099
rclavicle -6.09399e-014 -8.15017e-015
rhumerus -5.20285 1.61546 -81.493
rradius 38.2558
rwrist -8.84387
rhand -20.4789 -44.2569
rfingers 7.12502
rthumb 5.87751 -74.1553
lclavicle -6.09399e-014 -8.15017e-015
lhumerus -58.7834 8.58042 75.6779
lradius 20.7672
lwrist 5.66538
lhand -18.2022 -10.9235
lfingers 7.12502
lthumb 8.07522 18.9023
rfemur 6.2858 0.0435786 28.6945
rtibia 15.6988
rfoot -10.4021 21.8308
rtoes 5.19143
lfemur -38.6002 -1.80405 -6.76679
ltibia 16.7593
lfoot -17.7837 10.038
ltoes -17.6007
354
root 7.66099 16.1967 9.76579 8.1918 -7.81679 -7.66692
lowerback -1.65682 5.96045 7.02993
upperback -1.78154 7.87986 1.76349
thorax -0.22979 3.8873 -1.91312
lowerneck -9.97789 -1.50366 -1.88141
upperneck 18.4918 -1.9667 1.29071
head 7.34704 -0.947397 0.55277
rclavicle 6.59344e-014 4.96962e-015
rhumerus -5.66445 1.26707 -81.6708
rradius 38.5238
rwrist -8.8102
rhand -19.7985 -42.2143
rfingers 7.12502
rthumb 6.53438 -72.0935
lclavicle 6.59344e-014 4.96962e-015
lhumerus -59.0872 9.13958 74.3771
lradius 20.8559
lwrist 4.87344
lhand -17.4501 -10.6547
lfingers 7.12502
lthumb 8.80105 19.1418
rfemur 7.05288 0.334889 28.7114
rtibia 15.6114
rfoot -10.274 21.7507
rtoes 4.85637
lfemur -38.5217 -1.56853 -6.69873
ltibia 17.4448
lfoot -17.8549 9.19473
ltoes -16.6241
355
root 7.67162 16.166 9.93449 8.30211 -8.0563 -8.1266
lowerback -1.80609 6.0843 7.2313
upperback -1.66606 8.02114 1.80782
thorax 0.00488468 3.96552 -1.94298
lowerneck -10.2982 -1.56233 -2.01216
upperneck 18.3785 -2.07974 1.61033
head 7.37392 -0.98048 0.665823
rclavicle -5.56038e-014 -3.15074e-014
rhumerus -5.80056 0.975278 -81.7512
rradius 38.8235
rwrist -8.72917
rhand -20.1995 -41.5374
rfingers 7.12502
rthumb 6.14721 -71.4282
lclavicle -5.56038e-014 -3.15074e-014
lhumerus -58.9397 9.56549 73.5063
lradius 20.7063
lwrist 4.97785
lhand -16.6394 -10.0471
lfingers 7.12502
lthumb 9.58324 19.7149
rfemur 7.52898 0.491617 29.0162
rtibia 15.6389
rfoot -9.4726 21.9929
rtoes 6.0237
lfemur -38.6685 0.0718992 -7.08731
ltibia 18.3378
lfoot -16.6246 7.77233
ltoes -16.0899
356
root 7.68594 16.1481 10.0885 8.62982 -8.04562 -8.65725
lowerback -1.88203 6.17723 7.54272
upperback -1.68176 8.1337 1.85993
thorax 0.0743755 4.02118 -2.0417
lowerneck -10.4231 -1.6714 -2.27448
upperneck 18.075 -2.23492 1.91581
head 7.30682 -1.04511 0.793391
rclavicle 6.26234e-014 1.58034e-014
rhumerus -5.75053 0.939995 -81.6413
rradius 38.9715
rwrist -9.0832
rhand -21.5781 -43.8995
rfingers 7.12502
rthumb 4.81616 -73.8247
lclavicle 6.26234e-014 1.58034e-014
lhumerus -58.7776 9.86227 72.9484
lradius 20.3004
lwrist 4.76666
lhand -16.4105 -10.4746
lfingers 7.12502
lthumb 9.80408 19.2771
rfemur 7.79267 0.615539 29.411
rtibia 15.4723
rfoot -8.25096 21.9214
rtoes 6.99067
lfemur -39.2572 1.46873 -7.41527
ltibia 19.5175
lfoot -14.7272 7.28823
ltoes -14.6156
357
root 7.70157 16.1432 10.2515 8.74099 -8.10131 -8.66977
lowerback -1.81517 6.20362 7.30881
upperback -1.73217 8.18242 1.78897
thorax -0.0317204 4.04316 -1.99887
lowerneck -10.2573 -1.65126 -2.41691
upperneck 17.7398 -2.24324 2.24886
head 7.17384 -1.03092 0.925549
rclavicle 9.05806e-014 2.47487e-014
rhumerus -5.86258 0.893507 -81.6199
rradius 38.8751
rwrist -9.34569
rhand -23.8168 -51.904
rfingers 7.12502
rthumb 2.65432 -81.8672
lclavicle 9.05806e-014 2.47487e-014
lhumerus -59.0512 10.0577 72.5397
lradius 20.3136
lwrist 4.73823
lhand -16.9877 -11.2028
lfingers 7.12502
lthumb 9.24726 18.5744
rfemur 8.32358 1.34852 29.4184
rtibia 15.3792
rfoot -7.84229 21.1204
rtoes 5.88103
lfemur -39.587 2.00574 -7.86853
ltibia 20.7294
lfoot -12.889 8.11945
ltoes -14.1743
358
root 7.71977 16.1426 10.4348 8.71181 -8.2558 -8.48832
lowerback -1.80891 6.18259 6.83345
upperback -1.79348 8.16572 1.71647
thorax -0.153218 4.03424 -1.82648
lowerneck -10.1044 -1.58152 -2.47372
upperneck 17.6112 -2.18817 2.51296
head 7.10697 -0.986631 1.02659
rclavicle 5.64517e-015 -1.90088e-014
rhumerus -6.42665 1.08893 -81.6337
rradius 38.9952
rwrist -9.55617
rhand -21.5735 -46.612
rfingers 7.12502
rthumb 4.82064 -76.5371
lclavicle 5.64517e-015 -1.90088e-014
lhumerus -59.5245 10.467 71.7459
lradius 20.7248
lwrist 5.13155
lhand -17.2192 -10.7622
lfingers 7.12502
lthumb 9.02381 19.0248
rfemur 8.83995 1.91498 29.1722
rtibia 15.681
rfoot -7.52317 20.6558
rtoes 5.0337
lfemur -39.5772 2.28056 -8.32325
ltibia 21.6527
lfoot -11.0334 8.95873
ltoes -12.9182
